<?xml version="1.0" standalone="no"?><!DOCTYPE svg PUBLIC "-//W3C//DTD SVG 1.1//EN" "http://www.w3.org/Graphics/SVG/1.1/DTD/svg11.dtd"><svg t="1627108347577" class="icon" viewBox="0 0 1024 1024" version="1.1" xmlns="http://www.w3.org/2000/svg" p-id="4935" xmlns:xlink="http://www.w3.org/1999/xlink" width="200" height="200"><defs><style type="text/css">@font-face { font-family: feedback-iconfont; src: url("//at.alicdn.com/t/font_1031158_1uhr8ri0pk5.eot?#iefix") format("embedded-opentype"), url("//at.alicdn.com/t/font_1031158_1uhr8ri0pk5.woff2") format("woff2"), url("//at.alicdn.com/t/font_1031158_1uhr8ri0pk5.woff") format("woff"), url("//at.alicdn.com/t/font_1031158_1uhr8ri0pk5.ttf") format("truetype"), url("//at.alicdn.com/t/font_1031158_1uhr8ri0pk5.svg#iconfont") format("svg"); }
</style></defs><path d="M660.750044 997.266537c-14.811783 0-29.804198-5.418945-40.461457-15.173046-15.714941-14.45052-69.181866-55.995766-107.114482-55.995767-38.293879 0-91.580173 41.545246-107.114482 55.995767-16.256835 15.173046-42.809667 19.688834-63.221027 10.657259l-3.070736-1.445052-153.898042-89.231964c-17.701887-13.1861-27.094726-38.47451-22.217675-59.969659 4.696419-20.772623 13.908626-87.786911-5.057682-120.661845-18.966308-32.874934-81.64544-58.343976-102.0568-64.846711-20.41136-6.322103-37.932616-26.191568-41.545246-47.325454-0.361263-2.167578-9.212207-54.370083-9.212207-92.663962 0-38.293879 8.850944-90.315752 9.212207-92.663962 3.61263-21.133886 21.133886-41.003352 41.545246-47.325454s83.090492-31.791145 102.0568-64.84671c19.146939-33.055565 9.934733-99.889222 5.057682-120.661845-4.877051-21.675781 4.335156-46.78356 22.217675-59.96966l2.890104-1.986946 153.898042-88.8707c20.41136-9.031575 46.964191-4.515788 63.221027 10.657258 15.714941 14.45052 69.181866 55.995766 107.114482 55.995767 38.293879 0 91.580173-41.545246 107.114483-55.995767 16.256835-15.173046 42.809667-19.688834 63.221026-10.657258l3.070736 1.445052 153.898042 89.231963c17.701887 13.1861 27.094726 38.47451 22.217675 59.969659-4.696419 20.772623-13.908626 87.786911 5.057682 120.661846 18.966308 32.874934 81.64544 58.343976 102.0568 64.84671 20.41136 6.322103 37.932616 26.191568 41.545246 47.325454 0.361263 2.167578 9.212207 54.370083 9.212207 92.663962 0 38.293879-8.850944 90.315752-9.212207 92.663962-3.61263 21.133886-21.133886 41.003352-41.545246 47.325454s-83.090492 31.791145-102.0568 64.84671c-19.146939 33.055565-9.934733 99.889222-5.057682 120.661845 4.877051 21.495149-4.335156 46.78356-22.217675 59.96966l-2.890104 1.986946-153.898042 88.870701c-7.22526 2.890104-14.992415 4.515788-22.75957 4.515787zM225.247486 852.580702l140.531311 81.284177c15.353678-13.727994 82.548598-70.626918 147.214676-70.626918s131.860998 56.718292 147.214677 70.626918l140.53131-81.284177c-4.154525-19.869466-19.869466-106.572588 12.644206-162.748986 33.416828-57.982713 120.661845-87.786911 136.376786-92.844593 1.445052-8.489681 8.128418-50.938084 8.128417-80.561651 0-29.623567-6.683366-72.07197-8.128417-80.561651-15.714941-5.057682-102.959958-34.86188-136.376786-92.844594-32.333039-56.176398-16.79873-142.87952-12.644206-162.748985l-140.53131-81.284177c-15.353678 13.727994-82.548598 70.626918-147.214677 70.626918-64.84671 0-131.860998-56.718292-147.214676-70.626918l-140.531311 81.284177c4.154525 19.869466 19.869466 106.572588-12.644205 162.748985-33.416828 57.982713-120.661845 87.786911-136.376786 92.844594-1.445052 8.489681-8.128418 50.938084-8.128418 80.561651 0 29.623567 6.683366 72.07197 8.128418 80.561651 15.714941 5.057682 102.959958 34.86188 136.376786 92.844593 32.333039 56.176398 16.79873 142.87952 12.644205 162.748986z" p-id="4936"></path><path d="M512.993473 729.751279c-117.59111 0-213.145176-95.734697-213.145175-213.325807s95.734697-213.325807 213.325807-213.325807 213.145176 95.734697 213.145175 213.325807S630.584583 729.751279 512.993473 729.751279z m0-363.972482c-83.090492 0-150.646675 67.556183-150.646675 150.646675s67.556183 150.646675 150.646675 150.646675c83.090492 0 150.646675-67.556183 150.646675-150.646675S596.083965 365.778797 512.993473 365.778797z" p-id="4937"></path></svg>